<svg xmlns="http://www.w3.org/2000/svg" viewBox="0 0 232.98 233.88"><g id="b091ffd9-f708-4a06-a6ee-c62c4ce99ad1" data-name="レイヤー 2"><g id="b6ce73a4-0417-4075-b6a1-57142c768b5a" data-name="レイヤー 1"><path d="M211.13,180A113,113,0,0,0,95.42,2.74,12.87,12.87,0,0,0,86,19.08l.09.27a12.82,12.82,0,0,0,15.18,8.73,86.7,86.7,0,0,1,105.69,81.65,85.9,85.9,0,0,1-15,52.47l-3.55-3.29a9.35,9.35,0,0,0-15.48,4.78l-8.35,36.62a9.38,9.38,0,0,0,9.08,11.45,9.38,9.38,0,0,0,2.8-.43l35.89-11.07a9.36,9.36,0,0,0,3.61-15.8Z" fill="#f7d139"/><path d="M146.94,214.53a12.84,12.84,0,0,0-15.18-8.74,86.7,86.7,0,0,1-105.7-81.65,85.88,85.88,0,0,1,15-52.46L44.63,75a9.36,9.36,0,0,0,15.48-4.78l8.35-36.62a9.36,9.36,0,0,0-11.88-11L20.68,33.62a9.36,9.36,0,0,0-3.6,15.8l4.77,4.42a113,113,0,0,0,115.71,177.3A12.85,12.85,0,0,0,147,214.8Z" fill="#f7d139"/></g></g></svg>