<svg xmlns="http://www.w3.org/2000/svg" viewBox="0 0 698.57 467.18"><g id="beb8c16c-364e-4110-82cb-e91c2e0593c8" data-name="レイヤー 2"><g id="a112b6f5-2ff7-4a08-a67c-4ef410712fbe" data-name="レイヤー 1"><path d="M691.74,461c-14,14.43-20.23-.82-40.37-.82s-20.15,1-40.29,1-20.15,1.67-40.29,1.67-20.15-2.43-40.3-2.43-20.14,1.35-40.29,1.35-20.14-2.95-40.29-2.95S429.76,462,409.62,462,389.47,464,369.32,464s-20.14-6.32-40.29-6.32-20.15.21-40.3.21-20.14,2.3-40.29,2.3-20.14,1.83-40.29,1.83-20.15-3.13-40.29-3.13-20.15,1.75-40.3,1.75-20.15,1.22-40.3,1.22-20.15-1.16-40.3-1.16S23.12,473,9.06,458.56c-14.44-14.82-3.77-18.35-3.77-39s-1.08-20.68-1.08-41.36,4.31-20.68,4.31-41.37.82-20.68.82-41.36-4.4-20.68-4.4-41.36-.28-20.68-.28-41.36S4.13,192,4.13,171.36s5-20.68,5-41.37,0-20.68,0-41.36S5.77,67.94,5.77,47.26-7.78,20.7,6.65,5.88C20.71-8.55,26.8,8.12,47,8.12S67.1,5.56,87.24,5.56s20.15-.7,40.29-.7,20.15,3.65,40.3,3.65,20.14-3,40.29-3S228.26,9,248.41,9s20.15-5.65,40.29-5.65,20.15,4,40.3,4S349.14,3,369.29,3s20.15.68,40.3.68,20.14,1.75,40.29,1.75,20.14-.11,40.29-.11S510.32,6,530.46,6s20.15,3.08,40.3,3.08,20.15,0,40.3,0,20.15.1,40.3.1S675.91-6.9,690,7.53c14.43,14.82,2.55,19,2.55,39.72s-.15,20.68-.15,41.36-2,20.69-2,41.37,3.52,20.68,3.52,41.36,1,20.68,1,41.36-5.65,20.68-5.65,41.36.21,20.68.21,41.36,1,20.68,1,41.37,4.12,20.68,4.12,41.36S685,399.78,689.35,420C694,441.61,706.18,446.15,691.74,461Z" fill="#fff"/></g></g></svg>